<svg xmlns="http://www.w3.org/2000/svg" fill="none" viewBox="0 0 91 88"><path fill="#000" fill-rule="evenodd" d="M45.1.02a45.11 45.11 0 00-14.25 87.9c2.25.42 3.08-.98 3.08-2.17l-.06-8.4c-12.55 2.74-15.2-5.32-15.2-5.32-2.05-5.21-5-6.6-5-6.6-4.1-2.8.3-2.74.3-2.74 4.53.32 6.92 4.65 6.92 4.65 4.02 6.9 10.55 4.9 13.13 3.74.4-2.91 1.57-4.9 2.86-6.03-10.02-1.14-20.55-5-20.55-22.3 0-4.91 1.76-8.94 4.65-12.1-.47-1.14-2.02-5.72.43-11.93 0 0 3.79-1.22 12.4 4.62 3.6-1 7.46-1.5 11.3-1.52 3.83.02 7.7.52 11.3 1.52 8.6-5.83 12.39-4.62 12.39-4.62 2.45 6.21.91 10.8.44 11.93a17.42 17.42 0 014.65 12.1c0 17.33-10.56 21.14-20.6 22.26 1.62 1.4 3.06 4.14 3.06 8.35 0 6.03-.05 10.9-.05 12.38 0 1.2.81 2.6 3.1 2.16A45.11 45.11 0 0045.11 0v.02z" clip-rule="evenodd"/></svg>