<svg xmlns="http://www.w3.org/2000/svg" fill="none" viewBox="0 0 75 73"><path fill="#000" fill-rule="evenodd" d="M.84.22H74.4v72H.84v-72z" clip-rule="evenodd"/><path fill="#fff" fill-rule="evenodd" d="M20.18 60.39l5.63-3.34c1.08 1.89 2.07 3.48 4.44 3.48 2.27 0 3.7-.86 3.7-4.25V33.27h6.92v23.1c0 7.01-4.2 10.2-10.32 10.2-5.53 0-8.74-2.8-10.37-6.18zm24.44-.73l5.63-3.19c1.48 2.37 3.4 4.11 6.81 4.11 2.86 0 4.7-1.4 4.7-3.33 0-2.32-1.88-3.14-5.04-4.5l-1.73-.72c-4.99-2.08-8.3-4.7-8.3-10.2 0-5.07 3.95-8.94 10.13-8.94 4.39 0 7.55 1.5 9.82 5.41l-5.38 3.38c-1.19-2.08-2.47-2.9-4.44-2.9-2.03 0-3.31 1.26-3.31 2.9 0 2.03 1.28 2.86 4.24 4.11l1.73.73c5.88 2.46 9.18 4.98 9.18 10.63 0 6.09-4.89 9.42-11.45 9.42-6.42 0-10.56-3-12.59-6.91z" clip-rule="evenodd"/></svg>