<svg xmlns="http://www.w3.org/2000/svg" fill="none" viewBox="0 0 800 460"><path fill="#000" fill-rule="evenodd" d="M16.54 426.74H98.5a14.26 14.26 0 01-10.6-13.7V14.16C87.9 6.4 94.26 0 102.01 0h592.25c7.75 0 14.13 6.4 14.13 14.15v398.83c0 6.59-4.5 12.13-10.61 13.7h85.67a16.57 16.57 0 010 33.12H16.54A16.57 16.57 0 010 443.24c0-9.06 7.42-16.5 16.54-16.5zm95.5-404.57H686.2V409H112.04V22.17zm264.72 410.77h46.48a7.98 7.98 0 017.94 7.95 7.98 7.98 0 01-7.94 7.96h-46.48a7.98 7.98 0 01-7.94-7.96 7.94 7.94 0 017.94-7.95z" clip-rule="evenodd"/></svg>