<svg xmlns="http://www.w3.org/2000/svg" fill="none" viewBox="0 0 36 78"><path fill="#000" fill-rule="evenodd" d="M17.98 61.55c-3.3.02-6.58-.35-9.8-1.1-.95-.2-1.89-.5-2.8-.86l2.27 3.87.88 12.1c0 1.35 4.3 2.44 9.62 2.44 5.3 0 9.61-1.1 9.61-2.45l.7-12.22 2.15-3.75c-.92.37-1.86.66-2.83.88-3.21.74-6.5 1.1-9.8 1.09zm12.7-39.34c-3.35.47-7.8.73-12.53.73-4.73 0-9.18-.26-12.54-.73-1.66-.23-2.97-.5-3.9-.81-.34-.1-.66-.24-.96-.4l2.07 19.12A16.64 16.64 0 014 37.17a17.26 17.26 0 012.25-3.4c.4-.45.84-.87 1.31-1.24.42-.32.88-.6 1.36-.8.43-.2.9-.3 1.36-.3.53 0 1.04.15 1.5.42a4.3 4.3 0 011.35 1.37c.09.13.15.28.18.43.03.14.04.27.04.4.01.27-.06.52-.22.72a.65.65 0 01-.51.27.66.66 0 01-.51-.3c-.2-.25-.38-.52-.53-.81a1.98 1.98 0 00-.6-.7c-.2-.14-.45-.22-.7-.22-.4 0-.82.17-1.27.5-.5.37-.95.81-1.34 1.3-.48.58-.9 1.2-1.27 1.85-.4.7-.77 1.4-1.08 2.14-.3.7-.55 1.42-.75 2.15a7.67 7.67 0 00-.27 1.91c0 .2.01.39.04.58.02.19.07.37.14.54.07.15.16.29.29.4.13.1.3.16.46.15.25-.01.5-.08.72-.21.29-.16.57-.34.83-.55a10.68 10.68 0 001.67-1.65c.25-.3.47-.58.66-.85.16-.23.31-.46.43-.71l.8-2.37c.06-.21.2-.4.37-.54.14-.1.31-.16.48-.16.08 0 .16 0 .24.04.08.02.15.06.21.12a.6.6 0 01.16.22c.03.1.05.21.05.32 0 .3-.03.61-.09.91a7.39 7.39 0 01-.5 1.64 19.48 19.48 0 00-.44 1.17l-.22.67-.28.9-.3 1.01-.3 1.02-.26.9-.2.68a6.84 6.84 0 01-.23.68c-.06.13-.13.25-.22.37-.08.1-.17.2-.28.29a.52.52 0 01-.31.11.45.45 0 01-.4-.18c-.08-.12-.12-.34-.12-.66v-.15-.15a45.42 45.42 0 01.77-2.77l.35-1.07a20 20 0 01-.98 1c-.34.32-.7.62-1.07.9a6.4 6.4 0 01-1.12.65c-.34.16-.7.24-1.08.25-.36.01-.71-.08-1.03-.26l-.15-.1 1.16 12.12c.3.76 5.97 2.6 13.44 2.6s13.14-1.85 13.44-2.6l1.66-14.42-.4.37c-.43.4-.88.79-1.35 1.15-.38.3-.8.54-1.24.74-.4.17-.84.26-1.29.26-.35.02-.7-.08-1-.28a.94.94 0 01-.35-.78v-.07-.1c.04-.24.13-.47.26-.69.17-.28.36-.55.56-.81.21-.28.44-.57.69-.86a54.18 54.18 0 001.2-1.51c.11-.16.18-.34.2-.53a.24.24 0 00-.08-.19.44.44 0 00-.28-.07c-.25 0-.49.07-.7.18-.26.12-.5.28-.72.47-.25.21-.48.44-.69.68a10.17 10.17 0 00-1.58 2.4l-.14.3-.2.46-.24.52-.23.5-.18.43c-.05.12-.1.2-.11.25l-.14.35-.23.59-.27.7-.26.71-.22.59-.12.34a3.7 3.7 0 01-.2.5c-.07.14-.16.28-.26.4-.1.11-.21.21-.34.28a.88.88 0 01-.43.1.83.83 0 01-.5-.14c-.14-.1-.2-.29-.2-.56 0-.14.01-.28.04-.42l.13-.41.15-.4.16-.39.93-2.02c.32-.67.63-1.34.92-2l.17-.41-.05.05c-.35.34-.72.65-1.1.94-.34.26-.7.48-1.1.65-.32.16-.68.24-1.04.24-.2.01-.4-.03-.59-.1a.97.97 0 01-.37-.31 1.2 1.2 0 01-.2-.46 1.79 1.79 0 01-.03-.18l-.3.22c-.33.24-.68.44-1.04.6-.29.14-.6.22-.92.23a.87.87 0 01-.66-.27c-.17-.18-.25-.5-.25-.93 0-.36.05-.72.13-1.08a5.64 5.64 0 01-1.31 1.54c-.3.22-.61.4-.96.53-.36.15-.74.22-1.13.22-.18 0-.37-.02-.54-.07a1.14 1.14 0 01-.77-.7 1.89 1.89 0 01-.12-.72l.03-.3c.05-.32.12-.63.22-.94a34.26 34.26 0 011.64-4.13c.08-.22.23-.4.4-.55a.85.85 0 011-.02.6.6 0 01.18.2c.05.08.07.17.07.26a.7.7 0 01-.03.2c-.04.15-.1.3-.18.44a71.14 71.14 0 01-.72 1.4 11.75 11.75 0 00-.7 1.77c-.08.29-.13.59-.15.89 0 .11.03.23.09.33a.3.3 0 00.28.15c.38 0 .75-.13 1.05-.36.35-.26.67-.56.93-.9a13.89 13.89 0 001.62-3.03c.08-.25.17-.49.27-.73.08-.2.2-.38.33-.55a.6.6 0 01.47-.22.58.58 0 01.49.23c.12.16.18.36.17.56a1.6 1.6 0 01-.11.5c-.08.2-.17.45-.29.72l-.38.87a14.42 14.42 0 00-.67 1.88 3.55 3.55 0 00-.1 1 .33.33 0 00.36.22c.23-.02.45-.08.66-.19a4.36 4.36 0 001.03-.68c.08-.3.17-.61.29-.91a357.53 357.53 0 011.17-2.98l2.58-6.5c.08-.23.22-.43.42-.56.15-.1.33-.16.52-.16.18 0 .34.06.48.17a.66.66 0 01.22.55c0 .13-.03.26-.08.38-.05.15-.1.3-.18.44l-.5 1.16-.63 1.49-.7 1.67c-.22.58-.45 1.15-.68 1.7a384.12 384.12 0 00-1.13 2.85c-.08.18-.14.36-.19.54-.06.18-.09.36-.09.55 0 .08.01.17.05.24a.2.2 0 00.2.1c.15-.02.3-.06.44-.13a8.8 8.8 0 001.22-.8 24.3 24.3 0 001.98-1.75l.26-.84.19-.52c.08-.22.17-.44.27-.65.1-.2.2-.39.35-.56a.54.54 0 01.4-.24.67.67 0 01.5.15.63.63 0 01.15.46l-.01.2-.05.27-.05.28-.05.19a11.02 11.02 0 011.44-1.3c.25-.17.52-.32.8-.43a2.1 2.1 0 011.37-.1c.18.06.34.14.5.24.14.1.26.24.35.4.09.16.14.35.13.54 0 .31-.07.61-.2.89-.15.32-.33.64-.53.94-.2.31-.44.62-.68.92l-.68.82-.54.62c-.1.1-.18.22-.23.35a.26.26 0 00.08.2c.07.05.16.08.26.07.15-.02.3-.07.42-.16.28-.17.54-.36.79-.56a105.19 105.19 0 002.53-2.15L35.54 21c-.3.16-.63.3-.96.4-.93.3-2.24.58-3.9.81zm-12.55-4.94c-9.72 0-17.6 1.08-17.6 2.43 0 1.34 7.88 2.42 17.6 2.42 9.73 0 17.62-1.08 17.62-2.42 0-1.35-7.89-2.43-17.62-2.43zm7.04 3.14c0 .31-.94.57-2.1.57-1.15 0-2.09-.26-2.09-.57 0-.32.94-.57 2.1-.57 1.15 0 2.09.25 2.09.57z" clip-rule="evenodd"/><path fill="#000" fill-rule="evenodd" d="M21.4 20.15a.09.09 0 00-.01.05c0 .2.76.37 1.68.37.93 0 1.69-.16 1.69-.37l2.2-8.92 8.75-9.24h.01c.18-.22-.2-.87-.81-1.42-.63-.56-1.3-.75-1.51-.53l-9.34 9.83-2.65 10.23z" clip-rule="evenodd"/></svg>