<svg xmlns="http://www.w3.org/2000/svg" fill="none" viewBox="0 0 40 40"><path fill="#070707" stroke="#070707" d="M11.63.51h.5V.5h15.9C34.01.5 38.9 5.48 38.9 11.61V28.4c0 6.12-4.89 11.1-10.84 11.1H11.63A11 11 0 01.78 28.42V11.62C.78 5.5 5.67.51 11.63.51zM2.8 11.63v16.78a8.9 8.9 0 008.84 9.02h16.42a8.9 8.9 0 008.83-9.03V11.62c0-5-3.93-9.03-8.84-9.03h-16.4a8.93 8.93 0 00-8.85 9.04zM30.87 7.7c0-.59.45-1.04 1-1.04.56 0 1 .45 1 1.04 0 .59-.44 1.04-1 1.04-.55 0-1-.45-1-1.04zM9.81 20c0-5.65 4.53-10.26 10.03-10.26 5.5 0 10.03 4.6 10.03 10.26s-4.52 10.27-10.03 10.27c-5.5 0-10.03-4.61-10.03-10.27zm18.05 0a8.08 8.08 0 00-8.02-8.19 8.08 8.08 0 00-8.02 8.2 8.08 8.08 0 008.02 8.18A8.08 8.08 0 0027.86 20z"/></svg>