<svg xmlns="http://www.w3.org/2000/svg" fill="none" viewBox="0 0 59 90"><path fill="#3C3C3C" d="M15.05 89.66c8.04 0 14.56-6.64 14.56-14.83V60.01H15.05C7.01 60 .5 66.65.5 74.83c0 8.2 6.52 14.83 14.56 14.83z"/><path fill="#5B5B5B" d="M.5 45.17c0-8.2 6.51-14.83 14.55-14.83h14.56v29.67H15.05A14.72 14.72 0 01.5 45.17z"/><path fill="#000" d="M.5 15.5C.5 7.3 7 .67 15.04.67h14.56v29.67H15.05C7.01 30.34.5 23.68.5 15.5z"/><path fill="#9C9C9C" d="M29.63.67h14.56c8.04 0 14.56 6.64 14.56 14.83 0 8.18-6.52 14.82-14.56 14.82H29.63V.67z"/><path fill="#C7C7C7" d="M58.75 45.17c0 8.18-6.52 14.82-14.56 14.82-8.04 0-14.56-6.64-14.56-14.82 0-8.2 6.52-14.83 14.56-14.83 8.04 0 14.56 6.64 14.56 14.83z"/></svg>