<svg xmlns="http://www.w3.org/2000/svg" fill="none" viewBox="0 0 82 77"><path fill="#000" d="M8.96 62v9H6.64v-6.77H4V71H1.67v-6.77H.37V62h1.3v-.09c0-2.5 1.41-3.76 4.23-3.76.64 0 1.34.08 2.11.25v2.12c-.8-.1-1.5-.14-2.1-.14-.65 0-1.13.11-1.45.34-.3.22-.46.61-.46 1.19V62h4.96zm9.02 0h2.26v8.57c0 1.39-.46 2.45-1.38 3.18a5.12 5.12 0 01-3.31 1.1c-.98 0-1.83-.18-2.58-.56a3.91 3.91 0 01-1.7-1.63l1.99-1.14c.46.84 1.24 1.26 2.36 1.26.73 0 1.3-.19 1.73-.57.42-.39.63-.93.63-1.64v-.97a3.4 3.4 0 01-2.88 1.36 4.3 4.3 0 01-3.2-1.33 4.6 4.6 0 01-1.29-3.27 4.53 4.53 0 014.49-4.61c1.23 0 2.2.45 2.88 1.37V62zm-4.34 6.14c.48.45 1.08.68 1.82.68a2.38 2.38 0 002.52-2.47 2.44 2.44 0 00-2.52-2.45 2.5 2.5 0 00-1.82.71c-.47.46-.7 1.04-.7 1.75 0 .72.23 1.31.7 1.78zm18.66-6.4c1.04 0 1.86.34 2.47 1.02.62.67.94 1.57.94 2.7V71h-2.33v-5.38c0-.54-.13-.96-.4-1.26a1.4 1.4 0 00-1.1-.45c-.54 0-.95.17-1.25.52-.29.35-.43.85-.43 1.51V71h-2.32v-5.38c0-.54-.14-.96-.4-1.26a1.4 1.4 0 00-1.12-.45c-.51 0-.93.17-1.24.52-.3.35-.45.85-.45 1.51V71h-2.32v-9h2.32v.95c.54-.8 1.38-1.2 2.5-1.2 1.1 0 1.92.43 2.45 1.3.6-.87 1.5-1.3 2.68-1.3zm12.22.26h2.32v9h-2.32v-1.06a3.53 3.53 0 01-2.94 1.31c-1.2 0-2.23-.45-3.1-1.37a4.8 4.8 0 01-1.27-3.38c0-1.33.43-2.45 1.28-3.37a4.1 4.1 0 013.1-1.38c1.25 0 2.23.44 2.93 1.31V62zm-4.29 6.34c.47.46 1.07.7 1.79.7s1.3-.24 1.78-.7c.48-.48.72-1.1.72-1.84s-.24-1.35-.72-1.82a2.38 2.38 0 00-1.78-.72c-.72 0-1.32.24-1.79.72-.46.47-.7 1.08-.7 1.82s.24 1.36.7 1.84zM53.44 71V57.86h2.33V71h-2.33zm5.6-10.08a1.41 1.41 0 01-1.42-1.42c0-.39.14-.72.42-1.01.28-.29.62-.43 1-.43.4 0 .74.14 1.01.43a1.38 1.38 0 010 2.02c-.27.27-.61.41-1 .41zM57.9 71v-9h2.32v9H57.9zm9.45-9.25c.99 0 1.8.33 2.43.99.65.66.98 1.57.98 2.73V71h-2.33v-5.24c0-.6-.16-1.05-.48-1.37a1.75 1.75 0 00-1.3-.48c-.6 0-1.08.18-1.44.56-.36.37-.54.93-.54 1.67V71h-2.32v-9h2.32v1c.57-.83 1.46-1.25 2.68-1.25zM81.03 71h-2.7l-3.28-4.09V71h-2.32V58.4h2.32v7.56l3.1-3.96h2.77l-3.62 4.45L81.03 71z"/><path fill="#3C3C3C" d="M33.18 50a8.26 8.26 0 008.18-8.33v-8.33h-8.18A8.26 8.26 0 0025 41.67c0 4.6 3.66 8.33 8.18 8.33z"/><path fill="#5B5B5B" d="M25 25c0-4.6 3.66-8.33 8.18-8.33h8.18v16.67h-8.18A8.27 8.27 0 0125 25z"/><path fill="#000" d="M25 8.33C25 3.73 28.66 0 33.18 0h8.18v16.67h-8.18A8.27 8.27 0 0125 8.33z"/><path fill="#9C9C9C" d="M41.37 0h8.18a8.26 8.26 0 018.18 8.33c0 4.6-3.66 8.33-8.18 8.33h-8.18V0z"/><path fill="#C7C7C7" d="M57.73 25c0 4.6-3.66 8.33-8.18 8.33A8.26 8.26 0 0141.37 25c0-4.6 3.66-8.33 8.18-8.33A8.26 8.26 0 0157.73 25z"/></svg>