<svg xmlns="http://www.w3.org/2000/svg" fill="none" viewBox="0 0 88 78"><path fill="#000" d="M7.96 62.39h2.26v8.56c0 1.4-.46 2.46-1.38 3.19a5.12 5.12 0 01-3.31 1.1c-.98 0-1.83-.19-2.58-.56a3.91 3.91 0 01-1.69-1.64l1.98-1.13c.46.84 1.24 1.26 2.36 1.26.73 0 1.3-.2 1.73-.58.42-.38.63-.93.63-1.64v-.97a3.4 3.4 0 01-2.88 1.37 4.3 4.3 0 01-3.2-1.33 4.6 4.6 0 01-1.29-3.28 4.53 4.53 0 014.49-4.6c1.23 0 2.2.45 2.88 1.36V62.4zm-4.34 6.13c.48.46 1.08.69 1.82.69.73 0 1.33-.23 1.8-.69.48-.46.72-1.06.72-1.78a2.44 2.44 0 00-2.52-2.45 2.5 2.5 0 00-1.82.7c-.47.46-.7 1.04-.7 1.75 0 .72.23 1.32.7 1.78zm9.86-7.21a1.41 1.41 0 01-1.42-1.43c0-.38.14-.72.41-1 .3-.3.63-.44 1.01-.44.4 0 .73.15 1.01.44a1.38 1.38 0 010 2.01c-.28.28-.61.42-1 .42zm-1.15 10.08v-9h2.32v9h-2.32zm9.6-6.77h-2.04v3.74c0 .31.08.54.23.69.16.14.39.22.69.25.3.01.67 0 1.11-.02v2.1c-1.6.19-2.72.04-3.38-.44-.65-.48-.97-1.34-.97-2.58v-3.74H16v-2.23h1.57v-1.82l2.32-.7v2.52h2.03v2.23zm6.64-2.49c.98 0 1.79.33 2.43 1 .64.65.97 1.57.97 2.73v5.53h-2.32v-5.24c0-.6-.17-1.06-.49-1.37a1.75 1.75 0 00-1.3-.49c-.6 0-1.08.19-1.44.56-.36.37-.54.93-.54 1.68v4.86h-2.32v-12.6h2.32v4.6c.57-.84 1.46-1.26 2.69-1.26zm11.32.26h2.32v9H39.9v-1.01c-.56.84-1.46 1.26-2.68 1.26-.99 0-1.8-.33-2.45-1a3.78 3.78 0 01-.95-2.73V62.4h2.32v5.23c0 .6.16 1.07.48 1.39.33.31.76.47 1.3.47.6 0 1.08-.19 1.44-.56.36-.37.54-.93.54-1.67v-4.86zm9.69-.26c1.2 0 2.24.47 3.1 1.39a4.7 4.7 0 011.29 3.37c0 1.33-.43 2.46-1.3 3.38a4.08 4.08 0 01-3.1 1.37 3.48 3.48 0 01-2.9-1.32v1.07h-2.33v-12.6h2.32v4.66a3.48 3.48 0 012.92-1.32zm-2.22 6.6c.47.46 1.07.7 1.79.7s1.3-.24 1.78-.7c.48-.49.72-1.1.72-1.84 0-.75-.24-1.35-.72-1.82a2.38 2.38 0 00-1.78-.72c-.72 0-1.32.24-1.79.72-.46.47-.7 1.07-.7 1.82 0 .74.24 1.35.7 1.83zm12.75 2.66V58.25h2.32v13.14H60.1zm5.6-10.08a1.41 1.41 0 01-1.43-1.43c0-.38.14-.72.42-1 .29-.3.62-.44 1-.44.4 0 .74.15 1.01.44a1.38 1.38 0 010 2.01c-.27.28-.6.42-1 .42zm-1.16 10.08v-9h2.33v9h-2.33zm9.46-9.26c.98 0 1.79.33 2.43 1 .64.65.97 1.57.97 2.73v5.53h-2.32v-5.24c0-.6-.17-1.06-.49-1.37a1.75 1.75 0 00-1.3-.49c-.6 0-1.08.19-1.44.56-.36.37-.54.93-.54 1.68v4.86H69v-9h2.32v1c.57-.84 1.46-1.26 2.69-1.26zm13.68 9.26h-2.7l-3.28-4.1v4.1H79.4v-12.6h2.32v7.56l3.1-3.96h2.77l-3.62 4.44 3.73 4.56z"/><path fill="#000" fill-rule="evenodd" d="M43.63 0a25.63 25.63 0 00-8.1 49.96c1.28.23 1.75-.56 1.75-1.24l-.04-4.77c-7.13 1.55-8.63-3.02-8.63-3.02-1.17-2.97-2.85-3.75-2.85-3.75-2.32-1.6.18-1.56.18-1.56 2.57.18 3.93 2.64 3.93 2.64 2.29 3.92 6 2.78 7.46 2.13.23-1.66.9-2.79 1.63-3.43-5.7-.65-11.68-2.84-11.68-12.67 0-2.8 1-5.08 2.64-6.87-.27-.65-1.15-3.26.24-6.79 0 0 2.16-.69 7.06 2.63a24.58 24.58 0 0112.83 0c4.89-3.31 7.04-2.63 7.04-2.63 1.4 3.53.52 6.14.25 6.79a9.9 9.9 0 012.64 6.87c0 9.85-6 12.01-11.7 12.65.92.8 1.74 2.35 1.74 4.74 0 3.43-.03 6.2-.03 7.03 0 .69.46 1.48 1.76 1.23A25.63 25.63 0 0043.63 0z" clip-rule="evenodd"/></svg>