<svg xmlns="http://www.w3.org/2000/svg" fill="none" viewBox="0 0 90 90"><path fill="#000" d="M4 4.45h81.76v81H4v-81zM.3 89.25h89.2V.66H.3v88.57zm58.43-57c0-.31.1-.46.45-.46H65c.3 0 .44.11.44.46v29.87c0 .3-.07.45-.44.45h-5.77c-.38 0-.49-.18-.49-.49V32.25h-.03zm-.41-8.6c0-2.42 1.68-3.86 3.78-3.86 2.27 0 3.8 1.55 3.8 3.86 0 2.49-1.6 3.85-3.87 3.85-2.14.02-3.71-1.34-3.71-3.85zM41.59 44.69c-1.04-4.2-3.5-13.35-4.43-17.79h-.07c-.79 4.42-2.75 11.92-4.3 17.8h8.8zm-10.33 6.13l-2.93 11.35c-.07.31-.18.39-.55.39H22.3c-.37 0-.44-.11-.37-.57L32.5 24.37c.17-.67.3-1.29.37-3.14 0-.28.1-.39.3-.39h7.81c.27 0 .38.08.45.39l11.82 40.83c.07.31 0 .5-.3.5h-6.16c-.3 0-.49-.08-.56-.35l-3.05-11.39H31.26z"/></svg>