<svg xmlns="http://www.w3.org/2000/svg" fill="none" viewBox="0 0 90 90"><path fill="#000" d="M3.93 4.43H85.6v80.85H3.93V4.43zM.23 89.06h89.06V.65H.22v88.41zm60.06-52.13c-2.93 0-3.93 1.5-3.93 2.76 0 1.37.66 2.31 4.6 4.38 5.83 2.87 7.65 5.63 7.65 9.67 0 6.05-4.54 9.3-10.66 9.3-3.23 0-6.02-.67-7.6-1.62-.27-.1-.3-.3-.3-.6v-5.57c0-.39.17-.5.44-.31a13.66 13.66 0 007.46 2.23c2.93 0 4.16-1.25 4.16-2.94 0-1.36-.86-2.56-4.6-4.54-5.27-2.57-7.47-5.16-7.47-9.52 0-4.87 3.75-8.93 10.25-8.93 3.2 0 5.42.5 6.64 1.06.3.18.37.49.37.76v5.18c0 .3-.18.49-.55.38a12.45 12.45 0 00-6.46-1.69zm-31.92 4.49c.86.07 1.52.07 3 .07 4.34 0 8.43-1.54 8.43-7.56 0-4.8-2.93-7.21-7.88-7.21-1.48 0-2.89.07-3.57.1l.02 14.6zm-6.62-20.06c0-.27.52-.45.82-.45 2.37-.11 5.9-.19 9.57-.19 10.28 0 14.3 5.75 14.3 13.07 0 9.6-6.84 13.72-15.23 13.72-1.41 0-1.9-.08-2.9-.08v14.5c0 .31-.1.46-.44.46H22.2c-.3 0-.44-.11-.44-.46V21.36z" class="skills-soft-list__item-ps"/></svg>