<svg xmlns="http://www.w3.org/2000/svg" fill="none" viewBox="0 0 79 58"><path fill="#000" fill-rule="evenodd" d="M67.59 33.3c-2.7.02-5.05.67-7.02 1.63-.72-1.43-1.44-2.68-1.57-3.62-.14-1.1-.3-1.75-.14-3.06.16-1.3.92-3.14.92-3.29-.01-.14-.16-.8-1.73-.82-1.55-.01-2.9.3-3.05.71-.15.41-.45 1.35-.65 2.31-.27 1.43-3.1 6.46-4.73 9.1a9.17 9.17 0 01-1.07-2.65c-.14-1.1-.3-1.75-.14-3.06.17-1.3.92-3.14.92-3.3 0-.13-.16-.8-1.72-.81-1.56-.01-2.9.3-3.06.71-.15.41-.31 1.37-.64 2.31-.32.94-4.1 9.34-5.08 11.53-.5 1.12-.94 2.01-1.25 2.62-.32.6-.02.04-.05.1l-.42.8v.01c-.21.38-.44.75-.54.75-.08 0-.23-1.02.03-2.4.56-2.92 1.92-7.48 1.9-7.64 0-.08.26-.87-.87-1.28-1.1-.41-1.5.27-1.59.27-.09 0-.16.24-.16.24s1.22-5.13-2.35-5.13c-2.23 0-5.32 2.43-6.84 4.65l-5.2 2.84-2.5 1.38-.17-.19C14.49 33.42 6.5 30.16 6.83 23.97c.12-2.26.9-8.2 15.36-15.39 11.83-5.9 21.3-4.27 22.96-.68 2.34 5.14-5.07 14.7-17.37 16.07-4.69.52-7.15-1.29-7.77-1.97-.65-.71-.74-.74-.98-.6-.4.21-.15.84 0 1.22.36.95 1.87 2.64 4.44 3.49 2.26.74 7.75 1.14 14.4-1.43 7.45-2.88 13.27-10.9 11.56-17.59C47.7.29 36.4-1.96 25.71 1.84 19.35 4.1 12.45 7.64 7.5 12.28c-5.9 5.5-6.83 10.3-6.44 12.3 1.37 7.12 11.18 11.76 15.1 15.19l-.53.3c-1.97.97-9.45 4.88-11.32 9.03-2.12 4.68.33 8.06 1.96 8.5 5.05 1.41 10.22-1.11 13.02-5.27 2.78-4.15 2.44-9.55 1.16-12.01l-.04-.09 1.54-.9c1-.6 1.98-1.14 2.84-1.6a18.82 18.82 0 00-1.02 5.13c-.2 2.66.88 6.11 2.32 7.47.63.6 1.39.6 1.85.6 1.67 0 2.42-1.37 3.25-3.02 1.03-2 1.94-4.34 1.94-4.34s-1.14 6.3 1.96 6.3c1.13 0 2.27-1.46 2.78-2.22v.02l.1-.15.17-.3v-.03c.46-.78 1.47-2.58 2.98-5.56C43.07 37.8 44.94 33 44.94 33s.19 1.18.75 3.1c.33 1.16 1.06 2.41 1.62 3.64l-.73 1h.01c-.36.49-.76 1-1.2 1.52-1.53 1.84-3.38 3.94-3.62 4.54-.29.71-.23 1.24.33 1.66.41.3 1.14.37 1.9.3a8.51 8.51 0 002.85-.64 9.8 9.8 0 002.45-1.29A5.46 5.46 0 0051.64 42a9.59 9.59 0 00-.9-3.4l.41-.6c2.39-3.5 4.23-7.33 4.23-7.33s.19 1.17.75 3.1c.29.99.86 2.06 1.37 3.12-2.23 1.82-3.64 3.94-4.12 5.33-.9 2.57-.2 3.73 1.12 4 .59.12 1.43-.15 2.07-.42.79-.26 1.74-.69 2.61-1.34 1.51-1.13 2.96-2.68 2.89-4.78a9.15 9.15 0 00-.65-2.83 14.7 14.7 0 017.5-.86c6.72.79 8.04 4.99 7.8 6.74a4.53 4.53 0 01-2.14 3.02c-.46.3-.61.4-.57.6.06.32.27.3.68.25.56-.1 3.54-1.44 3.66-4.68.18-4.13-3.77-8.66-10.76-8.62zM15.72 50.8c-2.22 2.43-5.35 3.36-6.68 2.57-1.44-.83-.87-4.42 1.86-7a35.46 35.46 0 015.24-3.91l1.38-.83a.81.81 0 01.15-.1l.34-.2a9.64 9.64 0 01-2.29 9.47zm16.25-11.04c-.77 1.88-2.4 6.74-3.4 6.46-.83-.22-1.35-3.9-.15-7.52.6-1.83 1.88-4 2.64-4.85 1.22-1.36 2.56-1.81 2.88-1.25.4.71-1.49 5.97-1.97 7.16zm13.4 6.4c-.33.16-.63.29-.77.2-.1-.07.14-.3.14-.3s1.68-1.8 2.35-2.63c.37-.48.83-1.04 1.31-1.67v.18c0 2.18-2.09 3.63-3.03 4.22zm10.34-2.36c-.24-.18-.21-.74.6-2.49a9.34 9.34 0 012.3-2.96c.16.45.24.9.23 1.3-.02 2.72-1.95 3.73-3.13 4.15z" clip-rule="evenodd"/></svg>