<svg xmlns="http://www.w3.org/2000/svg" fill="none" viewBox="0 0 48 40"><path fill="#000" d="M46.55 1.1A3.07 3.07 0 0044.1 0c-.54 0-1.11.11-1.7.34L2.4 15.62C.27 16.42 0 17.64 0 18.29c.02.66.37 1.86 2.54 2.55h.04l8.3 2.38 4.49 12.84c.61 1.75 1.99 2.84 3.59 2.84 1 0 2-.43 2.87-1.22l5.13-4.73 7.45 6 .07.05.02.02a4.3 4.3 0 002.61.98c1.73 0 3.1-1.28 3.5-3.25l6.56-32.38c.26-1.3.04-2.46-.62-3.27zm-32.9 21.67l16.02-8.18-9.97 10.6c-.16.17-.28.38-.34.61l-1.92 7.8-3.78-10.83zm6.3 12.87l-.2.16 1.78-7.22 3.25 2.61-4.83 4.45zm24.5-31.82L37.9 36.2c-.07.3-.27 1.03-.79 1.03-.25 0-.57-.14-.9-.4l-8.44-6.79-5.03-4.05 14.42-15.32a1.39 1.39 0 00-1.63-2.18L11.8 20.6 3.39 18.2 43.4 2.93c.34-.13.57-.16.71-.16.09 0 .24.01.3.08.07.09.16.4.05.97z"/></svg>