<svg xmlns="http://www.w3.org/2000/svg" fill="none" viewBox="0 0 56 35"><g clip-path="url(#clip0)"><path fill="#000" d="M28.03 34.57c7.9 0 5.09-5 5.7-6.44-.01-1.07-.02-2.1.02-2.74.5.15 1.68.74 4.12 3.12 3.77 3.8 4.73 6.06 7.77 6.06h5.6c1.78 0 2.7-.73 3.17-1.35.44-.6.88-1.64.4-3.27-1.25-3.93-8.54-10.7-8.99-11.42l.24-.4c1.43-1.9 6.92-10.13 7.73-13.42V4.7c.44-1.5.04-2.48-.37-3.03C52.79.84 51.8.43 50.46.43h-5.6c-1.88 0-3.3.94-4.02 2.66-1.2 3.07-4.59 9.36-7.12 11.6-.08-3.17-.03-5.58.01-7.37.08-3.5.35-6.9-3.28-6.9h-8.8c-2.28 0-4.45 2.49-2.1 5.43 2.06 2.59.74 4.02 1.19 11.19-1.73-1.86-4.81-6.87-6.99-13.27-.6-1.74-1.53-3.34-4.13-3.34h-5.6C1.74.43.39 1.67.39 3.74c0 4.66 10.3 30.83 27.64 30.83zM9.62 3.84c.5 0 .54 0 .9 1.04 2.24 6.57 7.24 16.28 10.89 16.28 2.74 0 2.74-2.81 2.74-3.87V8.86a8.05 8.05 0 00-1.83-5.02l7.98.01c0 .04-.04 9.32.02 11.57 0 3.2 2.54 5.03 6.5 1.02C41 11.72 43.88 4.68 44 4.39c.17-.41.32-.55.86-.55H50.48v.02c-.52 2.4-5.57 10-7.26 12.37l-.08.12c-.74 1.21-1.35 2.56.1 4.45.14.16.48.53.98 1.05 1.56 1.6 6.9 7.1 7.37 9.29-.31.05-.65 0-5.95.02-1.12 0-2-1.68-5.37-5.08-3.02-2.94-4.98-4.14-6.77-4.14-3.47 0-3.21 2.82-3.18 6.22 0 3.7-.01 2.53.01 2.76-.2.08-.78.24-2.3.24-14.44 0-23.85-22.93-24.2-27.3.12-.02 1.84-.01 5.79-.02z"/></g><defs><clipPath id="clip0"><path fill="#fff" d="M0 0h54.63v35H0z" transform="translate(.39)"/></clipPath></defs></svg>